<svg id="Capa_1" data-name="Capa 1" xmlns="http://www.w3.org/2000/svg" viewBox="0 0 69.6 20.78"><defs><style>.cls-1,.cls-2{fill:#fff;}.cls-1{fill-rule:evenodd;}</style></defs><path class="cls-1" d="M11,19.79h1.7l-.35,1.62a2.91,2.91,0,0,1-.73.33,3,3,0,0,1-.89.14,1.64,1.64,0,0,1-1.08-.32,1.56,1.56,0,0,1-.51-1.26,2.58,2.58,0,0,1,.22-1.06,2.24,2.24,0,0,1,.75-.95A2,2,0,0,1,11.23,18a1.73,1.73,0,0,1,1.06.3,1.45,1.45,0,0,1,.52.89l-.72.08a1,1,0,0,0-.31-.48.85.85,0,0,0-.54-.16,1.28,1.28,0,0,0-.69.19,1.34,1.34,0,0,0-.5.61,2.41,2.41,0,0,0-.18.9,1,1,0,0,0,.22.71.86.86,0,0,0,.64.22,1.79,1.79,0,0,0,.51-.07A1.77,1.77,0,0,0,11.7,21l.12-.56h-1Z" transform="translate(-7.72 -17.96)"/><path class="cls-1" d="M13.52,19.07h.69l-.11.53a1.07,1.07,0,0,1,.84-.6.88.88,0,0,1,.34.08l-.28.61a.54.54,0,0,0-.22,0,.69.69,0,0,0-.39.15.88.88,0,0,0-.3.38,3.37,3.37,0,0,0-.22.77l-.19.86h-.74Z" transform="translate(-7.72 -17.96)"/><path class="cls-1" d="M15.61,19.07h.75L16,20.69a3.75,3.75,0,0,0-.07.37.27.27,0,0,0,.09.2.32.32,0,0,0,.23.09.65.65,0,0,0,.19,0,.71.71,0,0,0,.2-.12.73.73,0,0,0,.18-.17,1.5,1.5,0,0,0,.15-.26,2.11,2.11,0,0,0,.1-.39l.28-1.3h.74l-.57,2.74h-.69l.07-.37a1.4,1.4,0,0,1-1,.44.72.72,0,0,1-.53-.2.69.69,0,0,1-.19-.52,3.06,3.06,0,0,1,.08-.56Z" transform="translate(-7.72 -17.96)"/><path class="cls-1" d="M20.44,20.74a1,1,0,0,1-.28.44.59.59,0,0,1-.36.13.48.48,0,0,1-.37-.17.76.76,0,0,1-.15-.5,1.72,1.72,0,0,1,.09-.51,1.08,1.08,0,0,1,.27-.45.6.6,0,0,1,.39-.15.47.47,0,0,1,.37.17.65.65,0,0,1,.15.47,1.59,1.59,0,0,1-.11.57ZM21,19.3a.87.87,0,0,0-.69-.3,1.16,1.16,0,0,0-.42.08,1.84,1.84,0,0,0-.43.28l.06-.28h-.7l-.76,3.62.49-.63.26.62.26-1.26a.9.9,0,0,0,.82.45,1.19,1.19,0,0,0,.92-.44,1.84,1.84,0,0,0,.45-1.26A1.27,1.27,0,0,0,21,19.3Z" transform="translate(-7.72 -17.96)"/><path class="cls-1" d="M23.74,20.14a.55.55,0,0,0-.16-.42.5.5,0,0,0-.39-.16.66.66,0,0,0-.43.15,1,1,0,0,0-.29.43,1.49,1.49,0,0,0-.1.52.65.65,0,0,0,.16.47.53.53,0,0,0,.4.17.62.62,0,0,0,.51-.26,1.4,1.4,0,0,0,.3-.9Zm-2.12.53a1.74,1.74,0,0,1,.43-1.22A1.51,1.51,0,0,1,23.18,19a1.26,1.26,0,0,1,.95.34,1.18,1.18,0,0,1,.34.9,1.7,1.7,0,0,1-.42,1.15,1.47,1.47,0,0,1-1.14.49,1.53,1.53,0,0,1-.69-.16,1,1,0,0,1-.45-.44A1.28,1.28,0,0,1,21.62,20.67Z" transform="translate(-7.72 -17.96)"/><path class="cls-1" d="M22.51,27.63H20.85l.47-2.25,1.74,0a1,1,0,0,1,1.08,1,1.44,1.44,0,0,1-1.63,1.27Zm4.29-2.58a2.29,2.29,0,0,0-1-1.44,3.54,3.54,0,0,0-1.89-.47H19.1l0,.2.77,1.93H18.71l-1.6,8.45h2.62l.67-3.8,1.45,0a9,9,0,0,0,2-.17,3.92,3.92,0,0,0,2-1.21A3.65,3.65,0,0,0,26.69,27,5.22,5.22,0,0,0,26.8,25.05Z" transform="translate(-7.72 -17.96)"/><path class="cls-1" d="M32.19,27.77h5l-.94,4.44A9.36,9.36,0,0,1,34,33.37a8.79,8.79,0,0,1-2.53.44A4.86,4.86,0,0,1,28.38,33a4.17,4.17,0,0,1-1.44-3.46,7.38,7.38,0,0,1,.68-3A6.15,6.15,0,0,1,33.34,23a4.53,4.53,0,0,1,2.88.84,3,3,0,0,1,1.08,2.59l-2.58.46c-.1-.61-.07-1.16-1.08-1.51a3.46,3.46,0,0,0-2.39.37c-1.3.75-1.67,2.86-1.67,3.75a1.91,1.91,0,0,0,1.93,2.11,4,4,0,0,0,2.43-.73l.15-.85-2.3,0Z" transform="translate(-7.72 -17.96)"/><path class="cls-1" d="M41,27.37h2.44a1.22,1.22,0,0,0,1.32-1.09c.12-.72-.23-.89-1.11-.89H41.36l-.36,2Zm-1.25,6.26h-2.6l2-10.5h4.92a5.8,5.8,0,0,1,1.88.24,2.16,2.16,0,0,1,1.08.91,3,3,0,0,1,.41,1.6,3.35,3.35,0,0,1-1,2.22,3.56,3.56,0,0,1-1.84,1.07,2.13,2.13,0,0,1,.75.91,29.16,29.16,0,0,1,1.53,3.55H44c-.19-.59-1.63-3.25-1.63-3.25-.25-.47-.42-.69-.65-.78a5.56,5.56,0,0,0-1.13-.07Z" transform="translate(-7.72 -17.96)"/><path class="cls-1" d="M53.32,29.18l-.53-2.59-1.43,2.57,2,0Zm.44,2.2H50.11l-1.29,2.25H46.07l6.12-10.5h2.57L57,33.63H54.23Z" transform="translate(-7.72 -17.96)"/><path class="cls-1" d="M60.25,31.42h2A2,2,0,0,0,64,30.3a8,8,0,0,0,.71-3.87,1.41,1.41,0,0,0-1.3-1h-2l-1.15,6Zm-3,2.21,2-10.5h3c.79,0,1.29,0,1.51,0a3.33,3.33,0,0,1,3.2,1.7,5.22,5.22,0,0,1,.42,2.62,7.93,7.93,0,0,1-.74,3A6.06,6.06,0,0,1,65,32.58a5.32,5.32,0,0,1-2,.89,9.42,9.42,0,0,1-2.07.16Z" transform="translate(-7.72 -17.96)"/><polygon class="cls-1" points="59.5 15.67 61.56 5.17 69.59 5.17 69.16 7.43 63.72 7.43 63.4 9.11 68.5 9.11 68.05 11.31 62.96 11.31 62.56 13.5 68.17 13.5 67.78 15.67 59.5 15.67"/><path class="cls-1" d="M16.11,25.27l1.51-2-2.51,0L14.05,29a8.46,8.46,0,0,1-.62,1.94c-.19.39-.73.82-1.87.7s-1.24-.64-1.24-1.15A11.39,11.39,0,0,1,10.51,29l1.19-5.68H9.05L8,28.76c-.15.72-.25,1.19-.27,1.34a5,5,0,0,0,0,.63,2.92,2.92,0,0,0,.79,2.33,4.13,4.13,0,0,0,2.86.86,6.18,6.18,0,0,0,2.78-.57,3.63,3.63,0,0,0,1.63-1.56A11,11,0,0,0,16.65,29l.79-3.77Z" transform="translate(-7.72 -17.96)"/><path class="cls-2" d="M33.42,37.9,33.84,35h1.47l-.05.33H34.07l-.13.9H35.1l-.05.32H33.89l-.15,1H35L35,37.9Z" transform="translate(-7.72 -17.96)"/><path class="cls-2" d="M35.26,37.9,35.68,35h.25l-.42,2.88Z" transform="translate(-7.72 -17.96)"/><path class="cls-2" d="M36.69,38.09l.25,0v.05a.28.28,0,0,0,.07.2.25.25,0,0,0,.21.07.37.37,0,0,0,.32-.15,1.61,1.61,0,0,0,.12-.5l0-.17a.53.53,0,0,1-.42.28.43.43,0,0,1-.37-.23,1.19,1.19,0,0,1-.15-.66,1.91,1.91,0,0,1,.11-.64,1.2,1.2,0,0,1,.28-.45.49.49,0,0,1,.33-.15c.19,0,.34.13.44.39l.05-.34h.23l-.27,2a1.69,1.69,0,0,1-.21.65.54.54,0,0,1-.47.26.55.55,0,0,1-.42-.15.55.55,0,0,1-.14-.39A.41.41,0,0,1,36.69,38.09ZM37,37a1.63,1.63,0,0,0,0,.36.43.43,0,0,0,.12.2.21.21,0,0,0,.16.07.33.33,0,0,0,.22-.11.76.76,0,0,0,.2-.36,1.58,1.58,0,0,0,.09-.52.72.72,0,0,0-.11-.42.27.27,0,0,0-.24-.15.37.37,0,0,0-.23.13,1,1,0,0,0-.18.36A1.53,1.53,0,0,0,37,37Z" transform="translate(-7.72 -17.96)"/><path class="cls-2" d="M38.28,37.9l.31-2.08h.25l-.31,2.08Zm.36-2.48.06-.4H39l-.06.4Z" transform="translate(-7.72 -17.96)"/><path class="cls-2" d="M38.91,38.09l.25,0v.05a.24.24,0,0,0,.07.2.25.25,0,0,0,.21.07.37.37,0,0,0,.32-.15,1.61,1.61,0,0,0,.12-.5l0-.17a.53.53,0,0,1-.42.28.43.43,0,0,1-.37-.23A1.19,1.19,0,0,1,39,37a1.91,1.91,0,0,1,.11-.64,1.2,1.2,0,0,1,.28-.45.49.49,0,0,1,.33-.15c.19,0,.34.13.44.39l0-.34h.23l-.27,2a1.69,1.69,0,0,1-.21.65.6.6,0,0,1-.89.11.55.55,0,0,1-.14-.39A.41.41,0,0,1,38.91,38.09ZM39.22,37a1.19,1.19,0,0,0,0,.36.43.43,0,0,0,.12.2.21.21,0,0,0,.16.07.33.33,0,0,0,.22-.11.76.76,0,0,0,.2-.36,1.57,1.57,0,0,0,.08-.52.73.73,0,0,0-.1-.42.27.27,0,0,0-.24-.15.37.37,0,0,0-.23.13,1,1,0,0,0-.18.36A1.53,1.53,0,0,0,39.22,37Z" transform="translate(-7.72 -17.96)"/><path class="cls-2" d="M41.5,37.64a1.11,1.11,0,0,1-.26.24A.45.45,0,0,1,41,38a.4.4,0,0,1-.32-.16.69.69,0,0,1-.13-.45.78.78,0,0,1,.07-.35.69.69,0,0,1,.22-.23.93.93,0,0,1,.39-.09l.3,0,.14,0a1.29,1.29,0,0,0,0-.24.25.25,0,0,0-.08-.21.37.37,0,0,0-.25-.08c-.22,0-.36.13-.42.38l-.26,0c.11-.43.34-.64.7-.64a.53.53,0,0,1,.56.55,2,2,0,0,1,0,.39l-.09.52a1.59,1.59,0,0,0-.05.39,1.67,1.67,0,0,0,0,.28h-.26C41.52,37.84,41.51,37.75,41.5,37.64Zm.11-.8a.7.7,0,0,1-.32.08A1.79,1.79,0,0,0,41,37a.35.35,0,0,0-.13.14.39.39,0,0,0-.05.2.37.37,0,0,0,.08.25.25.25,0,0,0,.2.09.43.43,0,0,0,.24-.08.6.6,0,0,0,.18-.25A1.92,1.92,0,0,0,41.61,36.84Z" transform="translate(-7.72 -17.96)"/><path class="cls-2" d="M42.09,37.9l.31-2.08h.23l-.05.36a1.17,1.17,0,0,1,.29-.32.48.48,0,0,1,.26-.09.34.34,0,0,1,.28.13.61.61,0,0,1,.11.38c0,.08,0,.2,0,.36l-.2,1.26H43l.2-1.32a2.16,2.16,0,0,0,0-.29.23.23,0,0,0,0-.17.2.2,0,0,0-.15-.06.43.43,0,0,0-.34.2,1.4,1.4,0,0,0-.23.67l-.14,1Z" transform="translate(-7.72 -17.96)"/><path class="cls-2" d="M44.24,37.61l0,.29a.38.38,0,0,1-.17,0,.29.29,0,0,1-.22-.09.34.34,0,0,1-.08-.23,2.14,2.14,0,0,1,0-.32L44,36.09h-.2l0-.27H44l.07-.51.29-.24-.11.75h.25l0,.27H44.2L44,37.24c0,.15,0,.24,0,.26a.22.22,0,0,0,0,.1.09.09,0,0,0,.08,0A.32.32,0,0,0,44.24,37.61Z" transform="translate(-7.72 -17.96)"/><path class="cls-2" d="M45.56,37.19l.24,0a1,1,0,0,1-.28.53.54.54,0,0,1-.41.19.47.47,0,0,1-.3-.1.66.66,0,0,1-.21-.31,1.34,1.34,0,0,1-.08-.48,1.91,1.91,0,0,1,.12-.68,1.12,1.12,0,0,1,.3-.47.59.59,0,0,1,.37-.14.5.5,0,0,1,.42.22,1.08,1.08,0,0,1,.16.64,1.77,1.77,0,0,1,0,.32H44.78v.11a.88.88,0,0,0,.09.44.29.29,0,0,0,.24.16.37.37,0,0,0,.25-.12A.79.79,0,0,0,45.56,37.19Zm-.74-.51h.83V36.6a.82.82,0,0,0-.09-.42.29.29,0,0,0-.24-.14.41.41,0,0,0-.3.16A1.14,1.14,0,0,0,44.82,36.68Z" transform="translate(-7.72 -17.96)"/><path class="cls-2" d="M47.41,37.61l0,.29a.35.35,0,0,1-.17,0,.29.29,0,0,1-.22-.09.34.34,0,0,1-.08-.23s0-.15,0-.32l.18-1.21h-.2l0-.27h.2l.07-.51.29-.24-.11.75h.25l0,.27h-.25l-.17,1.15c0,.15,0,.24,0,.26a.13.13,0,0,0,0,.1s0,0,.08,0A.28.28,0,0,0,47.41,37.61Z" transform="translate(-7.72 -17.96)"/><path class="cls-2" d="M48.73,37.19l.25,0a1,1,0,0,1-.29.53.54.54,0,0,1-.41.19.47.47,0,0,1-.3-.1.84.84,0,0,1-.21-.31,1.35,1.35,0,0,1-.07-.48,1.91,1.91,0,0,1,.12-.68,1.11,1.11,0,0,1,.29-.47.59.59,0,0,1,.37-.14.5.5,0,0,1,.42.22,1.08,1.08,0,0,1,.16.64c0,.1,0,.21,0,.32H48v.11a.78.78,0,0,0,.1.44.26.26,0,0,0,.23.16.35.35,0,0,0,.25-.12A.79.79,0,0,0,48.73,37.19ZM48,36.68h.84V36.6a.81.81,0,0,0-.1-.42.28.28,0,0,0-.24-.14.41.41,0,0,0-.3.16A1.28,1.28,0,0,0,48,36.68Z" transform="translate(-7.72 -17.96)"/><path class="cls-2" d="M50.25,37.14l.25,0a1.25,1.25,0,0,1-.27.58.52.52,0,0,1-.39.19.45.45,0,0,1-.39-.22,1.07,1.07,0,0,1-.15-.62,2.09,2.09,0,0,1,.11-.72,1,1,0,0,1,.28-.47.6.6,0,0,1,.39-.15.46.46,0,0,1,.37.18.86.86,0,0,1,.14.51l-.25,0a.48.48,0,0,0-.08-.31.24.24,0,0,0-.2-.11.42.42,0,0,0-.25.1.88.88,0,0,0-.18.39,2,2,0,0,0-.08.61.74.74,0,0,0,.08.38.25.25,0,0,0,.21.13.32.32,0,0,0,.24-.13A1,1,0,0,0,50.25,37.14Z" transform="translate(-7.72 -17.96)"/><path class="cls-2" d="M50.66,37.9l.3-2.08h.23l0,.36a1.18,1.18,0,0,1,.3-.32.43.43,0,0,1,.25-.09.33.33,0,0,1,.28.13.61.61,0,0,1,.11.38,2,2,0,0,1,0,.36l-.2,1.26h-.25l.21-1.32a2.16,2.16,0,0,0,0-.29.24.24,0,0,0-.06-.17.17.17,0,0,0-.14-.06.45.45,0,0,0-.35.2,1.51,1.51,0,0,0-.23.67l-.14,1Z" transform="translate(-7.72 -17.96)"/><path class="cls-2" d="M52.29,37.11a1.86,1.86,0,0,1,.22-1,.65.65,0,0,1,.58-.39.49.49,0,0,1,.43.23,1.09,1.09,0,0,1,.17.65,1.85,1.85,0,0,1-.12.69,1,1,0,0,1-.29.46.62.62,0,0,1-.39.15.52.52,0,0,1-.43-.23A.94.94,0,0,1,52.29,37.11Zm.25,0a.79.79,0,0,0,.1.45.3.3,0,0,0,.26.15.33.33,0,0,0,.24-.11.9.9,0,0,0,.21-.37,1.7,1.7,0,0,0,.09-.54.88.88,0,0,0-.1-.45.3.3,0,0,0-.25-.16.37.37,0,0,0-.26.12.84.84,0,0,0-.21.37A1.91,1.91,0,0,0,52.54,37.07Z" transform="translate(-7.72 -17.96)"/><path class="cls-2" d="M53.81,37.9,54.23,35h.26l-.43,2.88Z" transform="translate(-7.72 -17.96)"/><path class="cls-2" d="M54.51,37.11a1.86,1.86,0,0,1,.22-1,.65.65,0,0,1,.58-.39.49.49,0,0,1,.43.23,1.09,1.09,0,0,1,.17.65,1.85,1.85,0,0,1-.12.69,1,1,0,0,1-.29.46.62.62,0,0,1-.39.15.52.52,0,0,1-.43-.23A.94.94,0,0,1,54.51,37.11Zm.25,0a.79.79,0,0,0,.1.45.3.3,0,0,0,.26.15.33.33,0,0,0,.24-.11.9.9,0,0,0,.21-.37,1.7,1.7,0,0,0,.09-.54.88.88,0,0,0-.1-.45A.3.3,0,0,0,55.3,36a.37.37,0,0,0-.25.12.84.84,0,0,0-.21.37A1.91,1.91,0,0,0,54.76,37.07Zm.35-1.51.26-.54h.32l-.37.54Z" transform="translate(-7.72 -17.96)"/><path class="cls-2" d="M56,38.09l.26,0v.05a.24.24,0,0,0,.27.27.36.36,0,0,0,.32-.15,1.53,1.53,0,0,0,.13-.5l0-.17a.53.53,0,0,1-.41.28.42.42,0,0,1-.37-.23,1.19,1.19,0,0,1-.16-.66,1.69,1.69,0,0,1,.12-.64,1.2,1.2,0,0,1,.28-.45.49.49,0,0,1,.33-.15c.19,0,.33.13.44.39l0-.34h.23l-.27,2a1.55,1.55,0,0,1-.2.65.55.55,0,0,1-.47.26.54.54,0,0,1-.42-.15A.51.51,0,0,1,56,38.2ZM56.35,37a1.19,1.19,0,0,0,0,.36.43.43,0,0,0,.12.2.21.21,0,0,0,.15.07.35.35,0,0,0,.23-.11.85.85,0,0,0,.2-.36,1.88,1.88,0,0,0,.08-.52.73.73,0,0,0-.1-.42.3.3,0,0,0-.24-.15.34.34,0,0,0-.23.13,1,1,0,0,0-.18.36A1.53,1.53,0,0,0,56.35,37Z" transform="translate(-7.72 -17.96)"/><path class="cls-2" d="M57.62,37.9l.31-2.08h.26l-.31,2.08ZM58,35.42l.06-.4h.25l-.06.4Z" transform="translate(-7.72 -17.96)"/><path class="cls-2" d="M59.29,37.14l.25,0a1.25,1.25,0,0,1-.27.58.53.53,0,0,1-.4.19.44.44,0,0,1-.38-.22,1,1,0,0,1-.16-.62,2.09,2.09,0,0,1,.12-.72,1,1,0,0,1,.28-.47.57.57,0,0,1,.38-.15.46.46,0,0,1,.38.18.86.86,0,0,1,.14.51l-.25,0a.54.54,0,0,0-.08-.31.28.28,0,0,0-.21-.11.37.37,0,0,0-.24.1,1,1,0,0,0-.19.39,2.32,2.32,0,0,0-.07.61.65.65,0,0,0,.08.38.25.25,0,0,0,.21.13.29.29,0,0,0,.23-.13A.88.88,0,0,0,59.29,37.14Z" transform="translate(-7.72 -17.96)"/><path class="cls-2" d="M59.74,37.11a1.86,1.86,0,0,1,.22-1,.65.65,0,0,1,.58-.39A.49.49,0,0,1,61,36a1.09,1.09,0,0,1,.17.65,1.85,1.85,0,0,1-.12.69,1,1,0,0,1-.29.46.6.6,0,0,1-.39.15.52.52,0,0,1-.43-.23A1,1,0,0,1,59.74,37.11Zm.25,0a.88.88,0,0,0,.1.45.31.31,0,0,0,.26.15.33.33,0,0,0,.24-.11.9.9,0,0,0,.21-.37,1.7,1.7,0,0,0,.09-.54.79.79,0,0,0-.1-.45.29.29,0,0,0-.25-.16.37.37,0,0,0-.26.12.75.75,0,0,0-.2.37A1.61,1.61,0,0,0,60,37.07Z" transform="translate(-7.72 -17.96)"/><path class="cls-2" d="M63.07,37.6c-.14.23-.29.35-.45.35a.41.41,0,0,1-.35-.22,1.19,1.19,0,0,1-.14-.64,2.23,2.23,0,0,1,.11-.7,1.11,1.11,0,0,1,.29-.47.49.49,0,0,1,.33-.15c.18,0,.32.12.42.37L63.45,35h.25l-.44,2.88H63ZM62.38,37v.08a.81.81,0,0,0,.1.43.26.26,0,0,0,.21.12c.12,0,.22-.08.32-.25a1.71,1.71,0,0,0,.18-.82.7.7,0,0,0-.09-.39.29.29,0,0,0-.23-.14.31.31,0,0,0-.24.13.88.88,0,0,0-.18.4A1.59,1.59,0,0,0,62.38,37Z" transform="translate(-7.72 -17.96)"/><path class="cls-2" d="M64.74,37.19l.25,0a1,1,0,0,1-.28.53.57.57,0,0,1-.42.19.46.46,0,0,1-.29-.1.66.66,0,0,1-.21-.31,1.34,1.34,0,0,1-.08-.48,1.91,1.91,0,0,1,.12-.68,1.22,1.22,0,0,1,.29-.47.62.62,0,0,1,.38-.14.5.5,0,0,1,.42.22,1.16,1.16,0,0,1,.16.64c0,.1,0,.21,0,.32H64a.45.45,0,0,0,0,.11.87.87,0,0,0,.1.44c.07.11.14.16.23.16a.37.37,0,0,0,.26-.12A.78.78,0,0,0,64.74,37.19ZM64,36.68h.83V36.6a.82.82,0,0,0-.09-.42A.31.31,0,0,0,64.5,36a.41.41,0,0,0-.29.16A1,1,0,0,0,64,36.68Z" transform="translate(-7.72 -17.96)"/><path class="cls-2" d="M65.7,37.9,66.85,35h.32l.34,2.88h-.26l-.1-.83h-.83L66,37.9Zm.74-1.12h.67L67,36.05c0-.28-.05-.52-.06-.71,0,.16-.11.36-.2.58Z" transform="translate(-7.72 -17.96)"/><path class="cls-2" d="M67.74,37.9l.31-2.08h.26l0,.34a.85.85,0,0,1,.26-.31.34.34,0,0,1,.23-.08.29.29,0,0,1,.23.1.49.49,0,0,1,.13.29.79.79,0,0,1,.24-.29.39.39,0,0,1,.26-.1.32.32,0,0,1,.27.12.52.52,0,0,1,.1.35,2.86,2.86,0,0,1,0,.32l-.21,1.34h-.25l.21-1.38a1.52,1.52,0,0,0,0-.24.23.23,0,0,0,0-.16.16.16,0,0,0-.13-.06.37.37,0,0,0-.22.09.62.62,0,0,0-.19.25,2.65,2.65,0,0,0-.12.49l-.15,1h-.26l.22-1.41c0-.09,0-.16,0-.2a.23.23,0,0,0,0-.17.14.14,0,0,0-.11-.06.41.41,0,0,0-.32.2,1.3,1.3,0,0,0-.22.66l-.15,1Z" transform="translate(-7.72 -17.96)"/><path class="cls-2" d="M71.21,37.19l.25,0a1.11,1.11,0,0,1-.29.53.54.54,0,0,1-.41.19.47.47,0,0,1-.3-.1.84.84,0,0,1-.21-.31,1.34,1.34,0,0,1-.08-.48,1.91,1.91,0,0,1,.12-.68,1.12,1.12,0,0,1,.3-.47.59.59,0,0,1,.37-.14.5.5,0,0,1,.42.22,1.08,1.08,0,0,1,.16.64c0,.1,0,.21,0,.32h-1.1v.11a.78.78,0,0,0,.1.44.26.26,0,0,0,.23.16.35.35,0,0,0,.25-.12A.79.79,0,0,0,71.21,37.19Zm-.74-.51h.84V36.6a.81.81,0,0,0-.1-.42A.28.28,0,0,0,71,36a.41.41,0,0,0-.3.16A1.14,1.14,0,0,0,70.47,36.68Zm.3-1.12L71,35h.32l-.37.54Z" transform="translate(-7.72 -17.96)"/><path class="cls-2" d="M71.71,37.9,72,35.82h.22l-.06.42c.15-.31.3-.47.45-.47a.32.32,0,0,1,.18.07l-.1.33a.22.22,0,0,0-.14-.06c-.09,0-.18.07-.28.21a2,2,0,0,0-.21.74L72,37.9Z" transform="translate(-7.72 -17.96)"/><path class="cls-2" d="M72.65,37.9,73,35.82h.25L72.9,37.9ZM73,35.42l.06-.4h.25l-.06.4Z" transform="translate(-7.72 -17.96)"/><path class="cls-2" d="M74.31,37.14l.25,0a1.25,1.25,0,0,1-.27.58.51.51,0,0,1-.39.19.45.45,0,0,1-.39-.22,1.07,1.07,0,0,1-.15-.62,2.09,2.09,0,0,1,.11-.72,1,1,0,0,1,.29-.47.55.55,0,0,1,.38-.15.46.46,0,0,1,.37.18.79.79,0,0,1,.14.51l-.25,0a.48.48,0,0,0-.08-.31.24.24,0,0,0-.2-.11.37.37,0,0,0-.24.1.78.78,0,0,0-.19.39,2.31,2.31,0,0,0-.08.61.64.64,0,0,0,.09.38.22.22,0,0,0,.2.13.32.32,0,0,0,.24-.13A1,1,0,0,0,74.31,37.14Z" transform="translate(-7.72 -17.96)"/><path class="cls-2" d="M75.72,37.64a1.14,1.14,0,0,1-.27.24.44.44,0,0,1-.24.07.42.42,0,0,1-.33-.16.69.69,0,0,1-.13-.45.78.78,0,0,1,.08-.35.58.58,0,0,1,.21-.23.93.93,0,0,1,.39-.09l.3,0a.46.46,0,0,0,.14,0,1.48,1.48,0,0,0,0-.24.26.26,0,0,0-.09-.21.37.37,0,0,0-.25-.08c-.22,0-.36.13-.42.38l-.26,0c.11-.43.35-.64.7-.64a.53.53,0,0,1,.56.55,2,2,0,0,1,0,.39l-.09.52a2.3,2.3,0,0,0,0,.39,1.67,1.67,0,0,0,0,.28h-.26A1.61,1.61,0,0,1,75.72,37.64Zm.11-.8a.75.75,0,0,1-.33.08,1.45,1.45,0,0,0-.31.07.32.32,0,0,0-.14.14.39.39,0,0,0,0,.2.37.37,0,0,0,.08.25.26.26,0,0,0,.21.09.43.43,0,0,0,.23-.08.52.52,0,0,0,.18-.25A2.33,2.33,0,0,0,75.83,36.84Z" transform="translate(-7.72 -17.96)"/></svg>